<svg id="Layer_1" data-name="Layer 1" xmlns="http://www.w3.org/2000/svg" viewBox="0 0 347.88 94.5">
  <g>
    <polygon points="77.33 65.9 77.33 0 0 0 0 77.33 65.9 77.33 77.33 65.9" fill="#4bfd9f"/>
    <polygon points="61.57 70.37 70.37 61.57 70.37 6.96 51.58 6.96 38.82 36.55 24.93 6.96 6.96 6.96 6.96 70.37 23.3 70.37 23.3 34.49 35.04 59 41.98 59 53.63 33.83 53.63 70.37 61.57 70.37" fill="#fff"/>
    <g>
      <path d="M87.16,6.6h41.45V20.23H103.42V31.32h21.8V44.86h-21.8V56.33h25.19V70.05H87.16Z" fill="#fff"/>
      <path d="M181.59,6.6V20.33H167.21V70.05H150.86V20.33H136.48V6.6Z" fill="#fff"/>
      <path d="M237.68,70.05H221.33V44.86H205.82V70.05H189.46V6.6h16.36V30.85h15.51V6.6h16.35Z" fill="#fff"/>
      <path d="M285.59,6.6A7.06,7.06,0,0,1,293,14V62.62a7.06,7.06,0,0,1-7.43,7.43H253a7.06,7.06,0,0,1-7.42-7.43V14A7.06,7.06,0,0,1,253,6.6Zm-8.93,14.76a1,1,0,0,0-1-1H262.75a1,1,0,0,0-.85,1V55.48a.91.91,0,0,0,.85.85h12.88a1,1,0,0,0,1-.85Z" fill="#fff"/>
      <path d="M335,6.6a13,13,0,0,1,12.88,12.88v37.6a13,13,0,0,1-12.88,13H300.88V6.6Zm-3.38,18.24A4.39,4.39,0,0,0,327,20.23h-9.77v36.1H327a4.39,4.39,0,0,0,4.61-4.61Z" fill="#fff"/>
    </g>
    <g>
      <path d="M196.68,91.73l-.87-2.61H192.2l-.84,2.61h-1.59l3.29-9.65h2l3.3,9.65ZM194,83.51H194l-1.4,4.27h2.86Z" fill="#fff"/>
      <path d="M203.08,82.08h3.41a4.58,4.58,0,0,1,1.69.3,3.34,3.34,0,0,1,1.28.91,4.17,4.17,0,0,1,.83,1.5,7.86,7.86,0,0,1,0,4.23,4.17,4.17,0,0,1-.83,1.5,3.34,3.34,0,0,1-1.28.91,4.58,4.58,0,0,1-1.69.3h-3.41Zm3.41,8.27a2.37,2.37,0,0,0,1.75-.68,2.73,2.73,0,0,0,.66-2V86.13a2.73,2.73,0,0,0-.66-2,2.37,2.37,0,0,0-1.75-.68h-1.85v6.89Z" fill="#fff"/>
      <path d="M215.24,91.9a3.5,3.5,0,0,1-1.38-.26,2.83,2.83,0,0,1-1-.76,3.2,3.2,0,0,1-.66-1.19,5,5,0,0,1-.23-1.55,5.06,5.06,0,0,1,.23-1.56,3.28,3.28,0,0,1,.66-1.19,2.7,2.7,0,0,1,1-.75,3.63,3.63,0,0,1,2.77,0,2.64,2.64,0,0,1,1,.77,3.38,3.38,0,0,1,.61,1.14,4.83,4.83,0,0,1,.2,1.4v.56H213.5v.24a1.89,1.89,0,0,0,.49,1.35,1.82,1.82,0,0,0,1.4.53,2.07,2.07,0,0,0,1.12-.29,2.42,2.42,0,0,0,.78-.78l.88.87A2.72,2.72,0,0,1,217,91.5,3.73,3.73,0,0,1,215.24,91.9Zm0-6.35a1.8,1.8,0,0,0-.71.14,1.57,1.57,0,0,0-.56.39,1.65,1.65,0,0,0-.35.59,2.29,2.29,0,0,0-.12.76v.1h3.34v-.14a2,2,0,0,0-.42-1.34A1.49,1.49,0,0,0,215.24,85.55Z" fill="#fff"/>
      <path d="M221.55,91.73l-2.45-7.19h1.49l1.1,3.28.73,2.52h.08l.74-2.52,1.12-3.28h1.44l-2.48,7.19Z" fill="#fff"/>
      <path d="M229.78,91.9a3.54,3.54,0,0,1-1.38-.26,2.92,2.92,0,0,1-1-.76,3.5,3.5,0,0,1-.66-1.19,5,5,0,0,1-.22-1.55,5.07,5.07,0,0,1,.22-1.56,3.6,3.6,0,0,1,.66-1.19,2.78,2.78,0,0,1,1-.75,3.63,3.63,0,0,1,2.77,0,2.67,2.67,0,0,1,1,.77,3.54,3.54,0,0,1,.6,1.14A4.83,4.83,0,0,1,233,88v.56H228v.24a1.89,1.89,0,0,0,.49,1.35,1.85,1.85,0,0,0,1.41.53,2.1,2.1,0,0,0,1.12-.29,2.49,2.49,0,0,0,.77-.78l.89.87a2.81,2.81,0,0,1-1.17,1.06A3.67,3.67,0,0,1,229.78,91.9Zm0-6.35a1.83,1.83,0,0,0-.71.14,1.45,1.45,0,0,0-.55.39,1.67,1.67,0,0,0-.36.59,2.29,2.29,0,0,0-.12.76v.1h3.35v-.14a2,2,0,0,0-.43-1.34A1.49,1.49,0,0,0,229.78,85.55Z" fill="#fff"/>
      <path d="M236.19,91.73a1.56,1.56,0,0,1-1.16-.39,1.53,1.53,0,0,1-.38-1.1V81.49h1.51v9h1v1.23Z" fill="#fff"/>
      <path d="M241.42,91.9a3.51,3.51,0,0,1-1.36-.26,3,3,0,0,1-1.05-.76,3.34,3.34,0,0,1-.66-1.19,4.71,4.71,0,0,1-.24-1.55,4.77,4.77,0,0,1,.24-1.56,3.43,3.43,0,0,1,.66-1.19,2.81,2.81,0,0,1,1.05-.75,3.56,3.56,0,0,1,2.72,0,2.81,2.81,0,0,1,1.05.75,3.6,3.6,0,0,1,.66,1.19,4.77,4.77,0,0,1,.24,1.56,4.71,4.71,0,0,1-.24,1.55,3.5,3.5,0,0,1-.66,1.19,3,3,0,0,1-1.05.76A3.51,3.51,0,0,1,241.42,91.9Zm0-1.26a1.71,1.71,0,0,0,1.25-.47,2,2,0,0,0,.47-1.43V87.53a1.94,1.94,0,0,0-.47-1.42,1.87,1.87,0,0,0-2.5,0,1.94,1.94,0,0,0-.47,1.42v1.21a2,2,0,0,0,.47,1.43A1.71,1.71,0,0,0,241.42,90.64Z" fill="#fff"/>
      <path d="M246.4,84.54h1.51v1.19H248a1.89,1.89,0,0,1,.77-1,2.16,2.16,0,0,1,1.25-.36,2.51,2.51,0,0,1,2.12,1,5.57,5.57,0,0,1,0,5.55,2.51,2.51,0,0,1-2.12,1,2.16,2.16,0,0,1-1.25-.36,1.93,1.93,0,0,1-.77-1h-.07v4H246.4Zm3.14,6.06a1.62,1.62,0,0,0,1.26-.51,1.88,1.88,0,0,0,.47-1.33V87.51a1.89,1.89,0,0,0-.47-1.33,1.62,1.62,0,0,0-1.26-.51,2,2,0,0,0-1.16.34,1.08,1.08,0,0,0-.47.9v2.46a1.06,1.06,0,0,0,.47.89A1.9,1.9,0,0,0,249.54,90.6Z" fill="#fff"/>
      <path d="M257.42,91.9a3.59,3.59,0,0,1-1.39-.26,3,3,0,0,1-1-.76,3.33,3.33,0,0,1-.65-1.19,4.72,4.72,0,0,1-.23-1.55,4.78,4.78,0,0,1,.23-1.56,3.41,3.41,0,0,1,.65-1.19,2.86,2.86,0,0,1,1-.75,3.65,3.65,0,0,1,2.78,0,2.72,2.72,0,0,1,1,.77,3.19,3.19,0,0,1,.6,1.14,4.83,4.83,0,0,1,.2,1.4v.56h-4.94v.24a1.89,1.89,0,0,0,.49,1.35,1.85,1.85,0,0,0,1.41.53,2.1,2.1,0,0,0,1.12-.29,2.49,2.49,0,0,0,.77-.78l.89.87a2.84,2.84,0,0,1-1.16,1.06A3.73,3.73,0,0,1,257.42,91.9Zm0-6.35a1.89,1.89,0,0,0-.72.14,1.53,1.53,0,0,0-.55.39,1.65,1.65,0,0,0-.35.59,2.06,2.06,0,0,0-.13.76v.1H259v-.14a2,2,0,0,0-.43-1.34A1.48,1.48,0,0,0,257.42,85.55Z" fill="#fff"/>
      <path d="M262.29,91.73V84.54h1.5v1.38h.07a2,2,0,0,1,.64-1,2,2,0,0,1,1.34-.41h.4V86h-.59a2.73,2.73,0,0,0-1.38.29,1,1,0,0,0-.48.86v4.59Z" fill="#fff"/>
      <path d="M271,82.08h4.28a2.58,2.58,0,0,1,1.89.67,2.48,2.48,0,0,1,.68,1.82,2.53,2.53,0,0,1-.15.92,1.83,1.83,0,0,1-.39.62,1.6,1.6,0,0,1-.54.36,1.87,1.87,0,0,1-.59.14v.09a2.12,2.12,0,0,1,.64.14,2,2,0,0,1,.66.39,2.21,2.21,0,0,1,.72,1.72,3.34,3.34,0,0,1-.19,1.1,2.66,2.66,0,0,1-.52.88,2.33,2.33,0,0,1-1.78.8H271Zm1.57,4.08H275a1.29,1.29,0,0,0,.9-.3,1.11,1.11,0,0,0,.31-.85v-.44a1.1,1.1,0,0,0-.31-.85,1.29,1.29,0,0,0-.9-.3h-2.42Zm0,4.23h2.68a1.3,1.3,0,0,0,1-.32,1.17,1.17,0,0,0,.35-.91v-.47a1.17,1.17,0,0,0-.35-.91,1.3,1.3,0,0,0-1-.32h-2.68Z" fill="#fff"/>
      <path d="M285.24,91.73a1.19,1.19,0,0,1-.91-.33,1.59,1.59,0,0,1-.39-.87h-.07a1.77,1.77,0,0,1-.76,1,2.5,2.5,0,0,1-1.34.35,2.4,2.4,0,0,1-1.73-.58,2.08,2.08,0,0,1-.6-1.56,1.84,1.84,0,0,1,.78-1.62,4.06,4.06,0,0,1,2.29-.54h1.31V87a1.4,1.4,0,0,0-.36-1,1.55,1.55,0,0,0-1.13-.36,1.79,1.79,0,0,0-1,.28,2.43,2.43,0,0,0-.68.71l-.9-.82a2.85,2.85,0,0,1,1-1,3.17,3.17,0,0,1,1.7-.4,3.21,3.21,0,0,1,2.15.65,2.35,2.35,0,0,1,.74,1.87V90.5h.76v1.23Zm-3-1a2,2,0,0,0,1.16-.31,1,1,0,0,0,.46-.84v-1h-1.28q-1.56,0-1.56,1v.25a.86.86,0,0,0,.32.73A1.5,1.5,0,0,0,282.2,90.75Z" fill="#fff"/>
      <path d="M289.85,91.9a3.43,3.43,0,0,1-2.92-1.36l1-.88a3.12,3.12,0,0,0,.89.75,2.34,2.34,0,0,0,1.14.27,1.59,1.59,0,0,0,1-.25.86.86,0,0,0,.33-.72.82.82,0,0,0-.23-.58,1.27,1.27,0,0,0-.8-.32l-.66-.08a3.36,3.36,0,0,1-1.74-.64,1.82,1.82,0,0,1-.63-1.5,2.2,2.2,0,0,1,.2-.94,1.91,1.91,0,0,1,.54-.69,2.52,2.52,0,0,1,.85-.43,3.35,3.35,0,0,1,1.08-.16,3.49,3.49,0,0,1,1.59.31,3.67,3.67,0,0,1,1.1.84l-.93.89a2.4,2.4,0,0,0-.73-.58,2.15,2.15,0,0,0-1-.24,1.4,1.4,0,0,0-.92.25.81.81,0,0,0-.3.65.73.73,0,0,0,.27.62,1.87,1.87,0,0,0,.84.31l.67.08a3.12,3.12,0,0,1,1.73.7,1.8,1.8,0,0,1,.55,1.39,2.24,2.24,0,0,1-.2,1,2.12,2.12,0,0,1-.58.72,2.48,2.48,0,0,1-.9.47A3.6,3.6,0,0,1,289.85,91.9Z" fill="#fff"/>
      <path d="M297.22,91.9a3.57,3.57,0,0,1-1.38-.26,2.92,2.92,0,0,1-1-.76,3.5,3.5,0,0,1-.66-1.19,5,5,0,0,1-.22-1.55,5.07,5.07,0,0,1,.22-1.56,3.6,3.6,0,0,1,.66-1.19,2.78,2.78,0,0,1,1-.75,3.4,3.4,0,0,1,1.38-.27,3.35,3.35,0,0,1,1.39.28,2.67,2.67,0,0,1,1,.77,3.54,3.54,0,0,1,.6,1.14,4.83,4.83,0,0,1,.2,1.4v.56h-4.94v.24a1.89,1.89,0,0,0,.49,1.35,1.85,1.85,0,0,0,1.41.53,2.1,2.1,0,0,0,1.12-.29,2.49,2.49,0,0,0,.77-.78l.89.87A2.81,2.81,0,0,1,299,91.5,3.67,3.67,0,0,1,297.22,91.9Zm0-6.35a1.83,1.83,0,0,0-.71.14,1.45,1.45,0,0,0-.55.39,1.67,1.67,0,0,0-.36.59,2.29,2.29,0,0,0-.12.76v.1h3.35v-.14a2,2,0,0,0-.43-1.34A1.49,1.49,0,0,0,297.22,85.55Z" fill="#fff"/>
      <path d="M309.05,83.46v8.27h-1.56V83.46h-2.88V82.08h7.32v1.38Z" fill="#fff"/>
      <path d="M313.34,81.49h1.51v4.24h.07a2.47,2.47,0,0,1,.71-1,2,2,0,0,1,1.31-.39,2.14,2.14,0,0,1,1.72.73,3.1,3.1,0,0,1,.62,2.07v4.56h-1.51V87.35q0-1.68-1.35-1.68a2.25,2.25,0,0,0-.58.08,1.53,1.53,0,0,0-.5.23,1.08,1.08,0,0,0-.49.93v4.82h-1.51Z" fill="#fff"/>
      <path d="M324.19,91.9a3.54,3.54,0,0,1-1.38-.26,2.92,2.92,0,0,1-1-.76,3.34,3.34,0,0,1-.66-1.19,5,5,0,0,1-.23-1.55,5.06,5.06,0,0,1,.23-1.56,3.43,3.43,0,0,1,.66-1.19,2.78,2.78,0,0,1,1-.75,3.63,3.63,0,0,1,2.77,0,2.75,2.75,0,0,1,1,.77,3.54,3.54,0,0,1,.6,1.14,4.83,4.83,0,0,1,.2,1.4v.56h-4.94v.24a1.89,1.89,0,0,0,.49,1.35,1.84,1.84,0,0,0,1.4.53,2,2,0,0,0,1.12-.29,2.42,2.42,0,0,0,.78-.78l.89.87A2.81,2.81,0,0,1,326,91.5,3.67,3.67,0,0,1,324.19,91.9Zm0-6.35a1.83,1.83,0,0,0-.71.14,1.45,1.45,0,0,0-.55.39,1.67,1.67,0,0,0-.36.59,2.29,2.29,0,0,0-.12.76v.1h3.35v-.14a2.05,2.05,0,0,0-.43-1.34A1.49,1.49,0,0,0,324.19,85.55Z" fill="#fff"/>
      <path d="M329.06,91.73V84.54h1.51v1.19h.07a2.65,2.65,0,0,1,.27-.53,2,2,0,0,1,.39-.43,1.56,1.56,0,0,1,.54-.29,2.22,2.22,0,0,1,.72-.11,2.35,2.35,0,0,1,1.3.36,2,2,0,0,1,.83,1.11h.05a2.1,2.1,0,0,1,.74-1,2.32,2.32,0,0,1,1.43-.43,2,2,0,0,1,1.67.73,3.15,3.15,0,0,1,.6,2.07v4.56h-1.51V87.35a2.05,2.05,0,0,0-.32-1.25,1.16,1.16,0,0,0-1-.43,2,2,0,0,0-.55.08,1.47,1.47,0,0,0-.47.23,1.12,1.12,0,0,0-.32.39,1.13,1.13,0,0,0-.13.54v4.82h-1.5V87.35q0-1.68-1.32-1.68a2.09,2.09,0,0,0-.55.08A1.58,1.58,0,0,0,331,86a1,1,0,0,0-.33.39,1,1,0,0,0-.13.54v4.82Z" fill="#fff"/>
      <path d="M344.09,91.9a3.5,3.5,0,0,1-1.38-.26,2.83,2.83,0,0,1-1-.76,3.2,3.2,0,0,1-.66-1.19,5,5,0,0,1-.23-1.55,5.06,5.06,0,0,1,.23-1.56,3.28,3.28,0,0,1,.66-1.19,2.7,2.7,0,0,1,1-.75,3.63,3.63,0,0,1,2.77,0,2.64,2.64,0,0,1,1,.77,3.19,3.19,0,0,1,.6,1.14,4.51,4.51,0,0,1,.21,1.4v.56h-4.94v.24a1.89,1.89,0,0,0,.49,1.35,1.82,1.82,0,0,0,1.4.53,2.07,2.07,0,0,0,1.12-.29,2.52,2.52,0,0,0,.78-.78l.88.87a2.78,2.78,0,0,1-1.16,1.06A3.73,3.73,0,0,1,344.09,91.9Zm0-6.35a1.8,1.8,0,0,0-.71.14,1.57,1.57,0,0,0-.56.39,1.65,1.65,0,0,0-.35.59,2.29,2.29,0,0,0-.12.76v.1h3.34v-.14a2,2,0,0,0-.42-1.34A1.49,1.49,0,0,0,344.09,85.55Z" fill="#fff"/>
    </g>
  </g>
</svg>
