<svg id="Layer_1" data-name="Layer 1" xmlns="http://www.w3.org/2000/svg" viewBox="0 0 500 161"><defs><style>.cls-1{fill:#4ffca1;}</style></defs><path class="cls-1" d="M23.48,40.13V96.71H1.4V1.28H23.89L53.48,54.17,83.2,1.28h22.49V96.71H83.61V40.13L59.89,82.81H47.21Z"/><path class="cls-1" d="M191.68,68.76H141.92A11.64,11.64,0,0,0,146,77.28q3.81,3.34,10.22,3.35a20.5,20.5,0,0,0,10-2.12,22.84,22.84,0,0,0,6.95-6.2l14.72,12.54a34.44,34.44,0,0,1-14,10,49,49,0,0,1-18.34,3.41,39.1,39.1,0,0,1-19.43-4.77,34.51,34.51,0,0,1-13.29-13,35.72,35.72,0,0,1-4.77-18.2A35.69,35.69,0,0,1,122.83,44a34.51,34.51,0,0,1,13.29-13,39.1,39.1,0,0,1,19.43-4.77A38,38,0,0,1,174.78,31a33.5,33.5,0,0,1,12.88,13,37,37,0,0,1,4.57,18.2A52.88,52.88,0,0,1,191.68,68.76Zm-27-21.33a12,12,0,0,0-9.14-3.62,13.27,13.27,0,0,0-9.61,3.62,13.93,13.93,0,0,0-4.29,8.93h27.13A15.53,15.53,0,0,0,164.69,47.43Z"/><path class="cls-1" d="M246.49,27.73v16.9H228.9V96.71H205.45V44.63h-11V27.73h11V1.28H228.9V27.73Z"/><path class="cls-1" d="M283.91,28.68a26.33,26.33,0,0,1,11.45-2.45q15.4,0,23.86,8.93T327.67,60V96.71H304.22V68.08q0-10.63-2.86-15.95t-10.77-5.32q-7.9,0-11.11,5.11t-3.2,14.8v30H252.83V1.28h23.45V35.09A17.41,17.41,0,0,1,283.91,28.68Z"/><path class="cls-1" d="M407.28,80.42a34,34,0,0,1-13.22,13,42,42,0,0,1-38.86,0,34.51,34.51,0,0,1-13.29-13,35.63,35.63,0,0,1-4.78-18.2A35.6,35.6,0,0,1,341.91,44,34.51,34.51,0,0,1,355.2,31a42,42,0,0,1,38.86,0,34,34,0,0,1,13.22,13A36,36,0,0,1,412,62.22,36.07,36.07,0,0,1,407.28,80.42ZM384.92,50.29A14.34,14.34,0,0,0,374.63,46a14.51,14.51,0,0,0-10.43,4.3q-4.44,4.29-4.43,11.93t4.43,11.86a14.6,14.6,0,0,0,10.43,4.23,14.43,14.43,0,0,0,10.29-4.23q4.44-4.23,4.43-11.86T384.92,50.29Z"/><path class="cls-1" d="M474.55,89.35a30.61,30.61,0,0,1-9.61,6.48,30.3,30.3,0,0,1-12.07,2.38,33.93,33.93,0,0,1-17.52-4.7,34.72,34.72,0,0,1-12.68-13A36.42,36.42,0,0,1,418,62.22a36.42,36.42,0,0,1,4.7-18.34,34.65,34.65,0,0,1,12.68-13,33.83,33.83,0,0,1,17.52-4.7,30.13,30.13,0,0,1,12.07,2.38,30.61,30.61,0,0,1,9.61,6.48V1.28H498V96.71H474.55Zm-4.7-39.27a16.06,16.06,0,0,0-11.93-4.77,15.9,15.9,0,0,0-11.8,4.77,16.61,16.61,0,0,0-4.7,12.14,16.57,16.57,0,0,0,4.7,12.13,15.86,15.86,0,0,0,11.8,4.77,16,16,0,0,0,11.93-4.77,16.57,16.57,0,0,0,4.7-12.13A16.61,16.61,0,0,0,469.85,50.08Z"/><path class="cls-1" d="M19.41,149.7a9.74,9.74,0,0,1-3.56,3.12A9.86,9.86,0,0,1,11.18,154a9.91,9.91,0,0,1-5.11-1.37,10.25,10.25,0,0,1-3.7-3.78,11.13,11.13,0,0,1,0-10.7,10.25,10.25,0,0,1,3.7-3.78A9.91,9.91,0,0,1,11.18,133a9.86,9.86,0,0,1,4.67,1.14,9.74,9.74,0,0,1,3.56,3.12V125.69h3v27.83h-3Zm-1-10.2a7.37,7.37,0,0,0-2.81-2.76,7.79,7.79,0,0,0-3.87-1,7.8,7.8,0,0,0-3.88,1A7.28,7.28,0,0,0,5,139.5a8.06,8.06,0,0,0,0,7.92,7.28,7.28,0,0,0,2.8,2.76,7.8,7.8,0,0,0,3.88,1,7.79,7.79,0,0,0,3.87-1,7.37,7.37,0,0,0,2.81-2.76,8.13,8.13,0,0,0,0-7.92Z"/><path class="cls-1" d="M50.67,144.53h-17a7.58,7.58,0,0,0,2.44,4.95,7.19,7.19,0,0,0,5,1.89,8.72,8.72,0,0,0,3.4-.69,7.33,7.33,0,0,0,2.69-1.89l2,1.87a10.24,10.24,0,0,1-3.61,2.4,11.65,11.65,0,0,1-4.46.9,10.25,10.25,0,0,1-5.27-1.41A10.65,10.65,0,0,1,32,148.73a10.55,10.55,0,0,1,0-10.54,10.57,10.57,0,0,1,3.81-3.82A10.25,10.25,0,0,1,41.08,133a9.12,9.12,0,0,1,5,1.39,9.48,9.48,0,0,1,3.4,3.8,11.59,11.59,0,0,1,1.22,5.31C50.71,143.94,50.69,144.29,50.67,144.53Zm-5.05-7.16a6,6,0,0,0-4.54-1.82,7.22,7.22,0,0,0-5,1.88,7.59,7.59,0,0,0-2.44,5h14A8.37,8.37,0,0,0,45.62,137.37Z"/><path class="cls-1" d="M76.83,133.4l-8.74,20.12H64.35L55.6,133.4h3.26l7.36,17.1,7.35-17.1Z"/><path class="cls-1" d="M101.73,144.53h-17a7.64,7.64,0,0,0,2.45,4.95,7.17,7.17,0,0,0,5,1.89,8.76,8.76,0,0,0,3.4-.69,7.29,7.29,0,0,0,2.68-1.89l2,1.87a10.19,10.19,0,0,1-3.62,2.4,11.6,11.6,0,0,1-4.45.9,10.22,10.22,0,0,1-5.27-1.41,10.6,10.6,0,0,1-3.82-3.82,10.55,10.55,0,0,1,0-10.54,10.52,10.52,0,0,1,3.82-3.82A10.22,10.22,0,0,1,92.15,133a9.12,9.12,0,0,1,5,1.39,9.48,9.48,0,0,1,3.4,3.8,11.58,11.58,0,0,1,1.21,5.31A9.55,9.55,0,0,1,101.73,144.53Zm-5-7.16a5.94,5.94,0,0,0-4.53-1.82,7.21,7.21,0,0,0-5,1.88,7.64,7.64,0,0,0-2.45,5h14A8.31,8.31,0,0,0,96.68,137.37Z"/><path class="cls-1" d="M112.87,125.69v27.83h-3V125.69Z"/><path class="cls-1" d="M140.69,148.73a10.58,10.58,0,0,1-3.84,3.82,10.5,10.5,0,0,1-10.51,0,10.6,10.6,0,0,1-3.82-3.82,10.55,10.55,0,0,1,0-10.54,10.52,10.52,0,0,1,3.82-3.82,10.5,10.5,0,0,1,10.51,0,10.5,10.5,0,0,1,3.84,3.82,10.55,10.55,0,0,1,0,10.54Zm-2.6-9.39a7.23,7.23,0,0,0-2.71-2.8,7.44,7.44,0,0,0-10.28,2.8,8.91,8.91,0,0,0,0,8.24,7.54,7.54,0,0,0,10.28,2.8,7.3,7.3,0,0,0,2.71-2.8,9.07,9.07,0,0,0,0-8.24Z"/><path class="cls-1" d="M170.33,148.81a9.93,9.93,0,0,1-8.78,5.15,9.83,9.83,0,0,1-4.69-1.14,10,10,0,0,1-3.58-3.12v11.53h-3V133.4h3v3.82a10,10,0,0,1,3.58-3.12,9.83,9.83,0,0,1,4.69-1.14,9.93,9.93,0,0,1,8.78,5.15,11.2,11.2,0,0,1,0,10.7Zm-2.66-9.31a7.35,7.35,0,0,0-2.8-2.76,8.1,8.1,0,0,0-7.76,0,7.35,7.35,0,0,0-2.8,2.76,8.13,8.13,0,0,0,0,7.92,7.35,7.35,0,0,0,2.8,2.76,8.1,8.1,0,0,0,7.76,0,7.35,7.35,0,0,0,2.8-2.76,8.06,8.06,0,0,0,0-7.92Z"/><path class="cls-1" d="M198.8,144.53h-17a7.58,7.58,0,0,0,2.44,4.95,7.19,7.19,0,0,0,5,1.89,8.72,8.72,0,0,0,3.4-.69,7.33,7.33,0,0,0,2.69-1.89l2,1.87a10.24,10.24,0,0,1-3.61,2.4,11.65,11.65,0,0,1-4.46.9,10.25,10.25,0,0,1-5.27-1.41,10.65,10.65,0,0,1-3.81-3.82,10.49,10.49,0,0,1,0-10.54,10.57,10.57,0,0,1,3.81-3.82,10.25,10.25,0,0,1,5.27-1.41,9.12,9.12,0,0,1,5,1.39,9.48,9.48,0,0,1,3.4,3.8,11.59,11.59,0,0,1,1.22,5.31C198.84,143.94,198.82,144.29,198.8,144.53Zm-5.05-7.16a6,6,0,0,0-4.54-1.82,7.22,7.22,0,0,0-5,1.88,7.59,7.59,0,0,0-2.44,5h14A8.37,8.37,0,0,0,193.75,137.37Z"/><path class="cls-1" d="M213.5,137.18a6.56,6.56,0,0,0-2.61,2.36,6.77,6.77,0,0,0-1,3.72v10.26h-3V133.4h3v4.65a7.23,7.23,0,0,1,1.39-2.4,7.84,7.84,0,0,1,2.43-1.93,6.37,6.37,0,0,1,3.06-.76v3.42A7.23,7.23,0,0,0,213.5,137.18Z"/><path class="cls-1" d="M258.67,148.81a10,10,0,0,1-3.68,3.78,10.22,10.22,0,0,1-9.8.23,10.22,10.22,0,0,1-3.58-3.12v3.82h-3V125.69h3v11.53a10.22,10.22,0,0,1,3.58-3.12,10.22,10.22,0,0,1,9.8.23,10,10,0,0,1,3.68,3.78,11.28,11.28,0,0,1,0,10.7ZM256,139.5a7.37,7.37,0,0,0-2.81-2.76,8.08,8.08,0,0,0-7.75,0,7.35,7.35,0,0,0-2.8,2.76,8.06,8.06,0,0,0,0,7.92,7.35,7.35,0,0,0,2.8,2.76,8.08,8.08,0,0,0,7.75,0,7.37,7.37,0,0,0,2.81-2.76,8.13,8.13,0,0,0,0-7.92Z"/><path class="cls-1" d="M285.46,149.7a9.74,9.74,0,0,1-3.56,3.12,10.18,10.18,0,0,1-9.78-.23,10.25,10.25,0,0,1-3.7-3.78,11.13,11.13,0,0,1,0-10.7,10.25,10.25,0,0,1,3.7-3.78,10.18,10.18,0,0,1,9.78-.23,9.74,9.74,0,0,1,3.56,3.12V133.4h3v20.12h-3Zm-1-10.2a7.37,7.37,0,0,0-2.81-2.76,8.08,8.08,0,0,0-7.75,0,7.35,7.35,0,0,0-2.8,2.76,8.06,8.06,0,0,0,0,7.92,7.35,7.35,0,0,0,2.8,2.76,8.08,8.08,0,0,0,7.75,0,7.37,7.37,0,0,0,2.81-2.76,8.13,8.13,0,0,0,0-7.92Z"/><path class="cls-1" d="M298.56,148a6.4,6.4,0,0,0,2.7,2.41,8.18,8.18,0,0,0,3.74.93,5.27,5.27,0,0,0,3.9-1.47,2.7,2.7,0,0,0,.83-2,2,2,0,0,0-.85-1.83,8.89,8.89,0,0,0-2.49-1l-.75-.24-.76-.24a39.29,39.29,0,0,1-5.13-1.95,4.53,4.53,0,0,1-1.85-1.76,4.94,4.94,0,0,1-.69-2.53,4.2,4.2,0,0,1,1.19-3,6.39,6.39,0,0,1,2.68-1.75,9.81,9.81,0,0,1,3.36-.6,10.94,10.94,0,0,1,3.82.68,8.15,8.15,0,0,1,3.06,1.94l-2,1.84a6.44,6.44,0,0,0-2.19-1.4,7.23,7.23,0,0,0-2.63-.51,4.69,4.69,0,0,0-3.49,1.27,2.26,2.26,0,0,0-.72,1.67,1.9,1.9,0,0,0,.72,1.49,5.22,5.22,0,0,0,1.76,1c.71.24,1.69.54,3,.88.21.08.53.17.95.28a14.11,14.11,0,0,1,4.53,2.09,4.14,4.14,0,0,1,1.59,3.51,5.21,5.21,0,0,1-.85,2.91,6.64,6.64,0,0,1-2.29,2.14,9.17,9.17,0,0,1-4.77,1.24,11.49,11.49,0,0,1-5.33-1.29,7.38,7.38,0,0,1-3.46-3.33Z"/><path class="cls-1" d="M339.68,144.53h-17a7.64,7.64,0,0,0,2.45,4.95,7.17,7.17,0,0,0,5,1.89,8.72,8.72,0,0,0,3.4-.69,7.33,7.33,0,0,0,2.69-1.89l2,1.87a10.24,10.24,0,0,1-3.61,2.4,11.65,11.65,0,0,1-4.46.9,10.25,10.25,0,0,1-5.27-1.41,10.76,10.76,0,0,1-3.82-3.82,10.55,10.55,0,0,1,0-10.54,10.68,10.68,0,0,1,3.82-3.82A10.25,10.25,0,0,1,330.1,133a9.12,9.12,0,0,1,5,1.39,9.48,9.48,0,0,1,3.4,3.8,11.59,11.59,0,0,1,1.22,5.31A9,9,0,0,1,339.68,144.53Zm-5-7.16a6,6,0,0,0-4.54-1.82,7.21,7.21,0,0,0-5,1.88,7.64,7.64,0,0,0-2.45,5h14A8.37,8.37,0,0,0,334.64,137.37Z"/><path class="cls-1" d="M370.9,133.4V136h-4.73v17.54h-3V136H360.4V133.4h2.78v-7.71h3v7.71Z"/><path class="cls-1" d="M377.83,153.52V125.69h3v12.6a7.54,7.54,0,0,1,2.84-3.76,8.22,8.22,0,0,1,5-1.57,8,8,0,0,1,6.4,2.62,10.75,10.75,0,0,1,2.27,7.24v10.7h-3V143.46a10.08,10.08,0,0,0-1.47-5.75,5.12,5.12,0,0,0-4.54-2.16,6.53,6.53,0,0,0-3.8,1.19,8.29,8.29,0,0,0-2.72,3.16,9.2,9.2,0,0,0-1,4.19v9.43Z"/><path class="cls-1" d="M425.38,144.53h-17a7.59,7.59,0,0,0,2.45,4.95,7.17,7.17,0,0,0,5,1.89,8.76,8.76,0,0,0,3.4-.69,7.29,7.29,0,0,0,2.68-1.89l2,1.87a10.28,10.28,0,0,1-3.62,2.4,11.6,11.6,0,0,1-4.45.9,10.22,10.22,0,0,1-5.27-1.41,10.6,10.6,0,0,1-3.82-3.82,10.55,10.55,0,0,1,0-10.54,10.52,10.52,0,0,1,3.82-3.82A10.22,10.22,0,0,1,415.8,133a9.12,9.12,0,0,1,5,1.39,9.55,9.55,0,0,1,3.4,3.8,11.58,11.58,0,0,1,1.21,5.31A9.55,9.55,0,0,1,425.38,144.53Zm-5.05-7.16a5.94,5.94,0,0,0-4.53-1.82,7.21,7.21,0,0,0-5,1.88,7.6,7.6,0,0,0-2.45,5h14A8.31,8.31,0,0,0,420.33,137.37Z"/><path class="cls-1" d="M449.94,153.52v-9.86a10,10,0,0,0-.83-4.12,7,7,0,0,0-2.39-2.92,6.16,6.16,0,0,0-3.62-1.07,6.36,6.36,0,0,0-5,2.1,8.53,8.53,0,0,0-1.85,5.81v10.06h-3v-10.7a10.35,10.35,0,0,1,1.29-5.23,9.07,9.07,0,0,1,3.46-3.44,10.07,10.07,0,0,1,10.12.36,8.79,8.79,0,0,1,3.34,4.22,8.65,8.65,0,0,1,3.3-4.22,10.07,10.07,0,0,1,10.12-.36,8.93,8.93,0,0,1,3.46,3.44,10.35,10.35,0,0,1,1.3,5.23v10.7h-3V143.46a8.57,8.57,0,0,0-1.83-5.81,6.89,6.89,0,0,0-8.64-1,6.93,6.93,0,0,0-2.41,2.92,9.85,9.85,0,0,0-.84,4.12v9.86Z"/><path class="cls-1" d="M497.69,144.53h-17a7.64,7.64,0,0,0,2.45,4.95,7.19,7.19,0,0,0,5,1.89,8.72,8.72,0,0,0,3.4-.69,7.33,7.33,0,0,0,2.69-1.89l2,1.87a10.24,10.24,0,0,1-3.61,2.4,11.65,11.65,0,0,1-4.46.9,10.25,10.25,0,0,1-5.27-1.41,10.76,10.76,0,0,1-3.82-3.82,10.62,10.62,0,0,1,0-10.54,10.68,10.68,0,0,1,3.82-3.82,10.25,10.25,0,0,1,5.27-1.41,9.12,9.12,0,0,1,5,1.39,9.48,9.48,0,0,1,3.4,3.8,11.59,11.59,0,0,1,1.22,5.31A9,9,0,0,1,497.69,144.53Zm-5-7.16a6,6,0,0,0-4.54-1.82,7.22,7.22,0,0,0-5,1.88,7.64,7.64,0,0,0-2.45,5h14A8.37,8.37,0,0,0,492.65,137.37Z"/></svg>