<svg version="1.1" baseProfile="basic" id="Layer_1" width="16" height="16"
	 xmlns="http://www.w3.org/2000/svg" xmlns:xlink="http://www.w3.org/1999/xlink" x="0px" y="0px" viewBox="0 0 16 16"
	 xml:space="preserve"  class="bi bi-twitter">
<path d="M13.703,14h-2.928c-0.323,0-0.627-0.156-0.815-0.42L2.052,2.474C1.911,2.275,2.053,2,2.297,2h2.928
	c0.323,0,0.627,0.156,0.815,0.42l7.908,11.106C14.089,13.725,13.947,14,13.703,14z M10.775,13h1.57L5.225,3h-1.57L10.775,13z"/>
<polygon points="8.942,7.359 13.458,2 12.155,2 8.34,6.513 "/>
<polygon points="6.822,8.31 2.013,14 3.345,14 7.426,9.158 "/>
</svg>
